<svg role="img" viewBox="0 0 256 256" xmlns="http://www.w3.org/2000/svg" id="Clerk--Streamline-Simple-Icons" height="256" width="256"><desc>Clerk Streamline Icon: https://streamlinehq.com</desc><title>Clerk</title><path d="m229.01333333333332 222.176 -30.730666666666664 -30.730666666666664a6.101333333333333 6.101333333333333 0 0 0 -7.466666666666666 -0.896 73.10933333333332 73.10933333333332 0 0 1 -75.53066666666666 0 6.143999999999999 6.143999999999999 0 0 0 -7.466666666666666 0.896l-30.730666666666664 30.730666666666664a6.143999999999999 6.143999999999999 0 0 0 -1.0986666666666665 7.359999999999999 6.079999999999999 6.079999999999999 0 0 0 1.7706666666666666 1.984 128 128 0 0 0 150.53866666666664 0 6.186666666666666 6.186666666666666 0 0 0 2.5493333333333332 -4.512 6.143999999999999 6.143999999999999 0 0 0 -1.8346666666666664 -4.832Zm0.021333333333333333 -188.45866666666666 -30.72 30.72a6.069333333333333 6.069333333333333 0 0 1 -7.477333333333332 0.896A73.14133333333334 73.14133333333334 0 0 0 93.056 86.18666666666667a73.19466666666666 73.19466666666666 0 0 0 -13.034666666666666 39.38133333333333 73.17333333333333 73.17333333333333 0 0 0 10.431999999999999 40.14933333333333 6.111999999999999 6.111999999999999 0 0 1 -0.8853333333333333 7.4559999999999995l-30.730666666666664 30.72a6.047999999999999 6.047999999999999 0 0 1 -9.216 -0.6719999999999999A127.92533333333333 127.92533333333333 0 0 1 72.22399999999999 28.8a127.89333333333333 127.89333333333333 0 0 1 156.128 -4.32 6.037333333333333 6.037333333333333 0 0 1 2.474666666666667 4.458666666666666 6.079999999999999 6.079999999999999 0 0 1 -1.792 4.778666666666666Zm-75.92533333333333 130.784a36.55466666666666 36.55466666666666 0 1 0 0 -73.10933333333332 36.55466666666666 36.55466666666666 0 0 0 0 73.10933333333332Z" fill="#835fff" stroke-width="10.6667"></path></svg>